<svg width="320" height="320" viewBox="0 0 320 320" fill="none" xmlns="http://www.w3.org/2000/svg">
<path d="M114.758 115.29C114.84 115.287 118.436 112.87 118.436 112.87L117.072 122.089L120.815 122.976L127.543 118.83L129.468 112.585C129.468 112.585 127.342 105.017 123.665 103.227C123.412 103.104 121.735 104.497 120.838 105.242C120.501 105.521 120.274 105.259 120.274 105.242C117.772 108.248 116.579 110.474 114.758 115.29Z" fill="#0071F4"/>
<path fill-rule="evenodd" clip-rule="evenodd" d="M200.158 173.124C200.172 172.434 200.186 171.743 200.201 171.052C200.229 171.048 200.257 171.044 200.285 171.039C200.325 171.033 200.365 171.027 200.405 171.021C200.437 171.016 200.468 171.012 200.5 171.007C200.429 171.018 200.357 171.029 200.285 171.039C200.257 171.044 200.229 171.048 200.201 171.052C199.886 162.3 199.267 157.475 197.476 149.033C197.334 148.6 197.193 148.167 197.051 147.734C196.909 147.301 196.767 146.868 196.626 146.435C195.479 142.93 194.501 140.404 193.217 137.632C190.736 132.273 188.387 128.113 185.955 124.774C179.549 115.976 171.789 108.925 163.194 104.095C156.266 100.202 149.638 98.1224 142.774 97.6891C138.776 97.4367 135.883 97.6726 132.188 98.5525C130.169 99.0334 128.952 99.4586 127.111 100.327C125.616 100.536 120.262 104.494 120.274 105.242C120.274 105.259 120.501 105.521 120.838 105.242C121.735 104.497 123.412 103.104 123.665 103.227C127.342 105.017 129.468 112.585 129.468 112.585L127.543 118.83L120.815 122.976L117.072 122.089L118.436 112.87C118.436 112.87 114.84 115.287 114.758 115.29C114.589 115.296 113.839 120.436 113.84 121.595C113.844 129.192 116.23 137.045 120.848 144.66C124.335 150.41 129.913 156.233 135.63 160.09C136.962 160.989 137.41 161.363 137.447 161.607C137.475 161.785 137.556 162.671 137.627 163.576C138.084 169.384 139.248 174.66 141.208 179.817C142.172 182.352 143.43 184.921 144.156 185.833C144.975 186.865 145.641 186.605 147.114 184.676C148.193 183.265 148.999 181.726 149.866 179.426C150.844 176.832 151.391 174.267 151.653 171.052C151.726 170.148 151.811 169.354 151.842 169.289C151.93 169.099 152.33 169.325 153.312 170.121C155.582 171.958 158.887 176.095 160.507 179.127C162.5 182.86 163.705 186.464 164.186 190.137C164.604 193.329 164.382 197.112 163.589 200.286C161.681 207.926 154.707 215.449 146.706 218.499C145.255 219.052 143.974 219.472 142.757 219.794C141.729 220.066 141.625 219.88 141.413 219.152C141.11 218.116 139.625 215.041 138.711 213.558C137.471 211.548 136.519 210.276 135.194 208.862C132.938 206.452 130.915 204.858 128.32 203.446C126.245 202.317 124.97 201.805 122.756 201.212C119.822 200.427 117.686 200.159 114.289 200.152C112.72 200.149 110.978 200.194 110.418 200.252C109.861 200.31 109.561 200.335 109.456 200.503C109.331 200.704 109.485 201.11 109.818 202.023C110.718 204.495 112.231 207.267 114.127 209.921C115.369 211.66 119.079 215.739 120.46 216.886C123.519 219.423 127.304 222.084 130.33 223.521C131.175 223.922 131.709 224.255 131.709 224.38C131.709 224.492 131.698 224.57 131.684 224.553C131.671 224.535 131.629 224.584 131.592 224.662C131.555 224.74 128.743 225.976 127.83 226.594C124.955 228.539 122.388 230.031 120.647 232.297C118.051 235.675 116.125 240.447 115.693 244.57C115.661 244.88 115.629 245.19 115.596 245.5H116.08C117.019 245.5 120.867 245.191 122.411 244.964C131.699 243.392 138.633 236.015 141.35 231.189C141.653 230.65 142.434 228.126 142.394 228C142.472 227.899 144.509 228.14 145.692 228.305C148.748 228.729 154.12 228.603 157.811 228.021C167.321 226.52 176.798 221.402 184.041 213.854C187.766 209.973 190.217 206.681 192.753 202.155C194.312 199.371 196.603 193.898 197.478 190.865C198.709 186.595 199.078 184.779 199.916 178.836C199.996 178.265 200.093 176.28 200.131 174.425C200.14 173.991 200.149 173.558 200.158 173.124Z" fill="#0071F4"/>
<path d="M72.7059 64.0589C71.6931 62.9432 70.9276 62.0172 71.0052 62.0007C71.1423 61.9718 73.2563 63.4615 75.2436 64.9882C75.7854 65.4043 76.7976 66.1755 77.4929 66.7018C78.1884 67.2281 80.817 69.2913 83.3341 71.2864C94.1188 79.8343 108.302 90.8062 119.197 99.0297C124.503 103.035 125.016 103.439 125.718 104.167C126.177 104.642 126.576 105.205 126.81 105.708C127.17 106.481 127.178 106.535 127.14 107.916C127.103 109.267 127.083 109.369 126.708 110.139C125.547 112.519 122.75 113.547 120.534 112.408C119.759 112.009 118.404 111.003 117.603 110.233C116.026 108.714 107.721 100.209 100.069 92.2752C98.89 91.0525 97.0006 89.119 95.8707 87.9784C93.7817 85.8698 91.5182 83.5632 88.3349 80.2981C87.3615 79.2998 85.9945 77.8986 85.2969 77.1843C84.5996 76.47 83.3592 75.1926 82.5405 74.3454C81.7219 73.4984 80.184 71.9144 79.1228 70.8254C78.0616 69.7364 76.8216 68.4464 76.3672 67.9589C75.9128 67.4715 75.3176 66.851 75.0443 66.5799C74.771 66.3089 73.7188 65.1744 72.7059 64.0589Z" fill="#0071F4"/>
<path d="M117.812 201.25C117.864 201.198 117.917 201.146 117.969 201.094C118.021 201.094 118.073 201.094 118.125 201.094C118.021 201.146 117.917 201.198 117.812 201.25Z" fill="#0071F4"/>
</svg>
